<svg xmlns="http://www.w3.org/2000/svg" viewBox="0 0 60 60" width="60" height="60" role="img" aria-label="OEMHub mark">
  <!-- Outer hex bolt (ink) -->
  <path d="M30 3 L53 16 L53 44 L30 57 L7 44 L7 16 Z" fill="#0B1A29"/>
  <!-- Inner hex (ivory) -->
  <path d="M30 13 L44.5 21.5 L44.5 38.5 L30 47 L15.5 38.5 L15.5 21.5 Z" fill="#F4EFE1"/>
  <!-- Center cross (ink) -->
  <path d="M30 18 L30 42 M18 30 L42 30" stroke="#0B1A29" stroke-width="2.5" stroke-linecap="square"/>
  <!-- Center dot (amber) -->
  <circle cx="30" cy="30" r="3.2" fill="#F59E0B"/>
  <!-- Register marks -->
  <rect x="5" y="5" width="4" height="1.5" fill="#F59E0B"/>
  <rect x="5" y="5" width="1.5" height="4" fill="#F59E0B"/>
  <rect x="51" y="5" width="4" height="1.5" fill="#F59E0B"/>
  <rect x="53.5" y="5" width="1.5" height="4" fill="#F59E0B"/>
  <rect x="5" y="53.5" width="4" height="1.5" fill="#F59E0B"/>
  <rect x="5" y="51" width="1.5" height="4" fill="#F59E0B"/>
  <rect x="51" y="53.5" width="4" height="1.5" fill="#F59E0B"/>
  <rect x="53.5" y="51" width="1.5" height="4" fill="#F59E0B"/>
</svg>
